C:\GBW_MyPrograms\PredSimResults\gait1018_esmac\gait1018_esmac_v36.mot
version=1
nRows=18
nColumns=29
inDegrees=yes
endheader
                time	         pelvis_tilt	           pelvis_tx	           pelvis_ty	       hip_flexion_l	       hip_flexion_r	        knee_angle_l	        knee_angle_r	       ankle_angle_l	       ankle_angle_r	    lumbar_extension	hamstrings_r/activation	bifemsh_r/activation	glut_max_r/activation	iliopsoas_r/activation	rect_fem_r/activation	  vasti_r/activation	gastroc_r/activation	 soleus_r/activation	tib_ant_r/activation	hamstrings_l/activation	bifemsh_l/activation	glut_max_l/activation	iliopsoas_l/activation	rect_fem_l/activation	  vasti_l/activation	gastroc_l/activation	 soleus_l/activation	tib_ant_l/activation	
          1.57160672	         -7.92019337	          1.96450840	          0.89604408	         28.59968341	         -9.10152533	         -1.29586720	        -10.31503422	          5.26962893	          3.97718215	          1.64480084	          0.01084708	          0.09176125	          0.01302567	          0.11287860	          0.01383440	          0.01107381	          0.21861731	          0.31507312	          0.01652346	          0.07284413	          0.01131436	          0.02450579	          0.01378549	          0.01617228	          0.01999792	          0.01175294	          0.02627726	          0.20116480	
          1.58208410	         -7.88697801	          1.98075719	          0.89556015	         27.67744842	         -8.98597403	         -0.88107490	        -12.36810611	          4.62503206	          2.89393745	          1.97057497	          0.01000656	          0.07812022	          0.01109813	          0.09609804	          0.01178166	          0.01833444	          0.18611718	          0.26823426	          0.01406710	          0.06578111	          0.01001989	          0.05277342	          0.01173695	          0.01377056	          0.03872090	          0.01000661	          0.02237273	          0.25220033	
          1.59256148	         -7.85041562	          1.99723113	          0.89504169	         26.72268691	         -8.68552054	         -0.92566407	        -14.74226029	          3.73671008	          1.61166316	          2.32208305	          0.02074292	          0.06650711	          0.05001950	          0.08181209	          0.01003774	          0.01563849	          0.15844853	          0.22835789	          0.01197593	          0.07001132	          0.01001798	          0.04507420	          0.01000366	          0.01172628	          0.03296575	          0.01809826	          0.01904752	          0.30494319	
          1.60303886	         -7.81504090	          2.01369145	          0.89463889	         25.76360610	         -8.14629674	         -1.08253904	        -17.46502687	          2.69412507	          0.00222107	          2.67455734	          0.01767355	          0.05662047	          0.04258498	          0.06964995	          0.01000305	          0.02258065	          0.13489315	          0.19440959	          0.01019571	          0.06595873	          0.02735920	          0.10203025	          0.01000144	          0.01000148	          0.02806554	          0.01540797	          0.01621598	          0.44836819	
          1.61351623	         -7.78633817	          2.02984526	          0.89458555	         24.87323078	         -7.31511477	         -1.28755493	        -20.52792949	          1.48956556	         -2.13242710	          2.99758227	          0.01504820	          0.04820372	          0.03625448	          0.05929594	          0.01035792	          0.01922445	          0.11483959	          0.16550812	          0.01000152	          0.06558664	          0.02329483	          0.12722538	          0.01000158	          0.01000340	          0.07292586	          0.01311831	          0.01380576	          0.50780109	
          1.62399361	         -7.76657838	          2.04549650	          0.89499222	         24.08142546	         -6.17348704	         -1.63386381	        -23.90422860	          0.57770949	         -4.82378458	          3.26968660	          0.01281314	          0.04103850	          0.03086497	          0.05048136	          0.04832101	          0.01636677	          0.09776725	          0.14090323	          0.23940517	          0.07138743	          0.01983443	          0.15451535	          0.01000177	          0.01000382	          0.13666380	          0.01117356	          0.01175537	          0.57752338	
          1.63447099	         -7.75758791	          2.06052748	          0.89576726	         23.35164939	         -4.79446985	         -2.04662492	        -27.46000362	          0.03143007	         -7.46038417	          3.47862021	          0.01093455	          0.03493982	          0.02627663	          0.04297783	          0.10843660	          0.01393377	          0.08323305	          0.11995621	          0.20381460	          0.06586961	          0.01688868	          0.16888830	          0.01000117	          0.01000288	          0.16727319	          0.01000348	          0.01000923	          0.61592987	
          1.64494837	         -7.75999315	          2.07493685	          0.89686211	         22.64914226	         -3.29142367	         -2.45445513	        -30.95815986	         -0.20053927	         -8.71424515	          3.62555421	          0.01002133	          0.02975416	          0.02237039	          0.03659514	          0.14545569	          0.01186247	          0.07085958	          0.10212325	          0.22075906	          0.06389202	          0.01438213	          0.16237699	          0.01000169	          0.01000401	          0.17191947	          0.01001298	          0.01004632	          0.60601162	
          1.65542575	         -7.77238538	          2.08881346	          0.89831286	         21.95374911	         -1.71814968	         -2.82375084	        -34.24223559	         -0.19107051	         -9.21830368	          3.72089098	          0.02764437	          0.05329766	          0.01904486	          0.04038557	          0.19348121	          0.01009916	          0.06032606	          0.08694146	          0.25835957	          0.06439807	          0.01225067	          0.15444251	          0.01000202	          0.01000463	          0.16807141	          0.01001515	          0.01309998	          0.58111655	
          1.66590312	         -7.79304497	          2.10224772	          0.90006992	         21.25211957	         -0.10138083	         -3.13410212	        -37.25209032	         -0.01136136	         -9.27835071	          3.77440857	          0.03380639	          0.05841303	          0.01621374	          0.04378201	          0.23086788	          0.01000061	          0.05135969	          0.07401664	          0.25857464	          0.06460069	          0.01044329	          0.14743111	          0.01000195	          0.01000453	          0.15914450	          0.01001966	          0.01618243	          0.54276903	
          1.67638050	         -7.82019898	          2.11533273	          0.90204526	         20.52754357	          1.53470836	         -3.36091008	        -39.94428354	          0.27325960	         -9.03416825	          3.79584379	          0.03084816	          0.08306226	          0.01380354	          0.04345141	          0.25681001	          0.01000074	          0.04375833	          0.06301326	          0.25086951	          0.06603382	          0.01003766	          0.14109395	          0.01000192	          0.01000441	          0.14967410	          0.01414703	          0.01621461	          0.50195435	
          1.68685788	         -7.85214901	          2.12814762	          0.90414133	         19.76686207	          3.17472065	         -3.48618621	        -42.29809391	          0.60769489	         -8.60463543	          3.79304266	          0.02626632	          0.09894953	          0.01175174	          0.04306433	          0.27065009	          0.01000080	          0.03725760	          0.05364566	          0.23039135	          0.06722064	          0.01004220	          0.13356599	          0.01000189	          0.01000448	          0.14128094	          0.02330584	          0.01381183	          0.46428956	
          1.69733526	         -7.88688324	          2.14075276	          0.90626431	         18.96427173	          4.80938493	         -3.50485820	        -44.31434130	          0.94391718	         -8.02625515	          3.77097853	          0.02236327	          0.12149526	          0.01000534	          0.04219373	          0.27344596	          0.01000089	          0.03171987	          0.04567065	          0.21162890	          0.06701528	          0.01003372	          0.12524600	          0.01000178	          0.01000450	          0.13402982	          0.03319290	          0.01176195	          0.43403763	
          1.70781264	         -7.92249488	          2.15319065	          0.90833069	         18.12041278	          6.43626858	         -3.42269509	        -46.01163930	          1.24736638	         -7.34867005	          3.73244899	          0.01903977	          0.14502684	          0.01000154	          0.04318350	          0.26590504	          0.01000103	          0.02700493	          0.03888122	          0.19196324	          0.06599921	          0.01002695	          0.11530927	          0.01000182	          0.01000517	          0.12865426	          0.04456391	          0.01002067	          0.41107101	
          1.71829001	         -7.95734688	          2.16548942	          0.91027087	         17.24073764	          8.05669199	         -3.25443005	        -47.42091118	          1.50414641	         -6.59162449	          3.67876645	          0.01621011	          0.17055961	          0.01000177	          0.04464130	          0.25099341	          0.01000121	          0.02299076	          0.03310112	          0.17488010	          0.06362269	          0.01002313	          0.10608185	          0.01000182	          0.01000576	          0.12356957	          0.05649805	          0.01000327	          0.39612131	
          1.72876739	         -7.99018261	          2.17766645	          0.91203153	         16.33308689	          9.67457596	         -3.01874433	        -48.57955719	          1.71618777	         -5.76995770	          3.61037142	          0.01380107	          0.19708363	          0.01000166	          0.04699228	          0.23063436	          0.01000142	          0.01957328	          0.02818030	          0.15988385	          0.06013474	          0.01002009	          0.09763550	          0.01000188	          0.01000693	          0.12148452	          0.07035714	          0.01000226	          0.38250924	
          1.73924477	         -8.02007428	          2.18973368	          0.91357792	         15.40330212	         11.29446121	         -2.73153262	        -49.52649709	          1.90489176	         -4.88852696	          3.52746369	          0.01175033	          0.22271327	          0.01000157	          0.04944694	          0.20712791	          0.01000164	          0.01666383	          0.02399102	          0.14740058	          0.05582553	          0.01001622	          0.08955839	          0.01000197	          0.01001039	          0.12176554	          0.08469294	          0.01014609	          0.36995760	
          1.74972215	         -8.04641485	          2.20170103	          0.91489356	         14.45372245	         12.91984653	         -2.39987585	        -50.29707629	          2.07512854	         -3.95153838	          3.43041045	          0.01000593	          0.24472589	          0.01000154	          0.05128146	          0.18265388	          0.01000192	          0.01418694	          0.02042454	          0.13701338	          0.05126188	          0.01001609	          0.08218857	          0.01000206	          0.01001261	          0.11679681	          0.09817131	          0.01673858	          0.36465447	
